<svg width="35" height="34" viewBox="0 0 35 34" fill="none" xmlns="http://www.w3.org/2000/svg">
<g clip-path="url(#clip0_31_29)">
<path d="M22.7502 16.9999C22.7502 18.3525 22.1971 19.6497 21.2125 20.6062C20.2279 21.5626 18.8926 22.0999 17.5002 22.0999C16.1078 22.0999 14.7725 21.5626 13.7879 20.6062C12.8033 19.6497 12.2502 18.3525 12.2502 16.9999C12.2502 16.7092 12.2817 16.4253 12.3359 16.1499H10.5002V22.9448C10.5002 23.4174 10.8939 23.7999 11.3804 23.7999H23.6217C23.8549 23.7995 24.0783 23.7092 24.243 23.5489C24.4077 23.3886 24.5002 23.1713 24.5002 22.9448V16.1499H22.6644C22.7187 16.4253 22.7502 16.7092 22.7502 16.9999ZM17.5002 20.3999C17.9599 20.3998 18.4152 20.3117 18.8399 20.1407C19.2646 19.9697 19.6504 19.7191 19.9754 19.4032C20.3004 19.0874 20.5582 18.7124 20.734 18.2997C20.9099 17.8871 21.0003 17.4448 21.0002 16.9982C21.0001 16.5516 20.9094 16.1094 20.7334 15.6968C20.5573 15.2843 20.2994 14.9094 19.9742 14.5937C19.649 14.278 19.263 14.0276 18.8382 13.8568C18.4135 13.686 17.9582 13.5981 17.4984 13.5982C16.57 13.5985 15.6796 13.957 15.0232 14.5949C14.3668 15.2329 13.9982 16.098 13.9984 16.9999C13.9987 17.9019 14.3677 18.7668 15.0244 19.4044C15.6812 20.0421 16.5717 20.4002 17.5002 20.3999ZM21.7002 13.4299H23.7984C23.9378 13.4299 24.0716 13.3763 24.1703 13.2807C24.269 13.1851 24.3247 13.0553 24.3252 12.9199V10.8816C24.3252 10.7459 24.2697 10.6158 24.1709 10.5198C24.0721 10.4238 23.9382 10.3699 23.7984 10.3699H21.7002C21.5605 10.3699 21.4265 10.4238 21.3277 10.5198C21.2289 10.6158 21.1734 10.7459 21.1734 10.8816V12.9199C21.1752 13.2004 21.4114 13.4299 21.7002 13.4299ZM17.5002 0.679932C13.0446 0.679932 8.77141 2.39936 5.6208 5.45995C2.47019 8.52054 0.700195 12.6716 0.700195 16.9999C0.700195 21.3283 2.47019 25.4793 5.6208 28.5399C8.77141 31.6005 13.0446 33.3199 17.5002 33.3199C19.7064 33.3199 21.891 32.8978 23.9293 32.0776C25.9676 31.2575 27.8196 30.0554 29.3796 28.5399C30.9396 27.0245 32.1771 25.2254 33.0214 23.2453C33.8657 21.2653 34.3002 19.1431 34.3002 16.9999C34.3002 14.8568 33.8657 12.7346 33.0214 10.7545C32.1771 8.7745 30.9396 6.9754 29.3796 5.45995C27.8196 3.9445 25.9676 2.74237 23.9293 1.92222C21.891 1.10206 19.7064 0.679932 17.5002 0.679932ZM26.2502 23.6112C26.2502 24.6499 25.3752 25.4999 24.3059 25.4999H10.6944C9.6252 25.4999 8.7502 24.6499 8.7502 23.6112V10.3886C8.7502 9.34993 9.6252 8.49993 10.6944 8.49993H24.3059C25.3752 8.49993 26.2502 9.34993 26.2502 10.3886V23.6112Z" fill="#F9F9F9"/>
</g>
<defs>
<clipPath id="clip0_31_29">
<rect width="35" height="34" fill="white"/>
</clipPath>
</defs>
</svg>
